<svg aria-hidden="true" focusable="false" viewBox="20 49.5 160 101" xmlns="http://www.w3.org/2000/svg"><g><path d="M139.59 56.56s-44.84-2.4-58.9-5.43c-14.06-3.02-35.89-.17-47.29 9.43-11.4 9.59-19.4 25.49-.24 41.6s71.63 24.03 78.38 21.28c6.75-2.75 41.16-27.5 41.16-27.5s13.73-25.58-13.11-39.38z" fill="#CCD7BE" clip-rule="evenodd" fill-rule="evenodd"></path><path fill="#F6AB8A" clip-rule="evenodd" fill-rule="evenodd" d="m175.54 80.52.06 1.69-34.91 27.7 37.93-24.37L180 86.84l-86.88 63.6-2.87-4.36 27.19-20.03-30.41 18.34-2.06-4.4 90.56-59.46z"></path><path d="M126.49 74.58s1.42-16.23 1.2-18.74c-.22-2.51-2.74-1.44-5.26-2.63-2.53-1.19-19.26-2.85-27.68-1.98-8.42.87-28.64-1.2-28.64-1.2s3.54 4.38 2.31 13.13-1.91 11.42-1.91 11.42-5.14 1.7-6.46.56c-1.31-1.14-.01-2.94.49-3.81.5-.87-1.87 1.41-2.33-.1-.46-1.51 1.11-.74 2.03-2.6.92-1.86.92-4.83.92-4.83l-10.11-1.81.52 23.18 5.17 1.3s2.37-2.72 1.29-4.27c-1.08-1.56-3.96-4.22-3.25-4.56.72-.34 8.78-1.39 8.78-1.39s3.3 1.06 1.65 5.27c-1.65 4.21-.57 14.02-1.28 15.54-.71 1.52 6.84-.42 14.07-.3s22.82.54 22.82.54-3.76-4-1.87-8.81c1.89-4.81 19.05-6.04 24.4-6.35 5.35-.31 6.46-.13 6.46-.13s1.57-5.39-3.32-7.43z" fill="#FAFAFB" clip-rule="evenodd" fill-rule="evenodd"></path><path d="M63.66 54.84s-.5 2.15.45 2.3c.94.16 1.7-.29 2.12.24.42.53.74 2.28.53 3.18-.21.9-.21 1.59.1 3.34.32 1.75.49 3.03-.1 3.98-.59.94-2.07-1.1-3.82-1.1-1.75 0-2.33-1.43-1.75-2.97.57-1.55-.28-3.79.07-5.35.35-1.57 1.29-4.57 2.41-3.61z" fill="#EF7734" clip-rule="evenodd" fill-rule="evenodd"></path><path d="M58.04 82.2c.18-1.49 3.5 1.51 3.5 1.51l2.04-1.51s.07 1.68 0 3.53c-.07 1.85 1.68 3.75.66 5.31-1.02 1.56.16 2.67-1.91 2.02-2.07-.64-2.11-1.32-3.56-.98-1.46.34-3.12.8-2.69-.72.43-1.52 1.14-3.47 1.41-5.88.27-2.41.56-3.28.56-3.28z" fill="#EF7734" clip-rule="evenodd" fill-rule="evenodd"></path><path d="M51.23 69.51s1.17 1.79.11 5.1c-1.06 3.31 1.21 4.49.11 4.97-1.1.48-2.15-.51-3.75.57-1.6 1.08-3.86 1.29-3.42-1.12.44-2.41 2.13-3.89 1.94-5.56-.18-1.67.92-.93 2.21-2.23 1.29-1.3 2.79-1.73 2.79-1.73z" fill="#EF7734" clip-rule="evenodd" fill-rule="evenodd"></path><path d="M63.66 54.84s-.5 2.15.45 2.3c.94.16 1.7-.29 2.12.24.42.53.74 2.28.53 3.18-.21.9-.21 1.59.1 3.34.32 1.75.49 3.03-.1 3.98-.59.94-2.07-1.1-3.82-1.1-1.75 0-2.33-1.43-1.75-2.97.57-1.55-.28-3.79.07-5.35.35-1.57 1.29-4.57 2.41-3.61z" clip-rule="evenodd" fill-rule="evenodd" opacity=".4"></path><path d="M58.04 82.2c.18-1.49 3.5 1.51 3.5 1.51l2.04-1.51s.07 1.68 0 3.53c-.07 1.85 1.68 3.75.66 5.31-1.02 1.56.16 2.67-1.91 2.02-2.07-.64-2.11-1.32-3.56-.98-1.46.34-3.12.8-2.69-.72.43-1.52 1.14-3.47 1.41-5.88.27-2.41.56-3.28.56-3.28z" clip-rule="evenodd" fill-rule="evenodd" opacity=".4"></path><path d="M51.23 69.51s1.17 1.79.11 5.1c-1.06 3.31 1.21 4.49.11 4.97-1.1.48-2.15-.51-3.75.57-1.6 1.08-3.86 1.29-3.42-1.12.44-2.41 2.13-3.89 1.94-5.56-.18-1.67.92-.93 2.21-2.23 1.29-1.3 2.79-1.73 2.79-1.73z" clip-rule="evenodd" fill-rule="evenodd" opacity=".4"></path><path d="M64.59 50.55s-2.11-.36-3.42.32c-1.32.68-5.32-.28-2.76 1.24 2.55 1.52 3.92 1.04 2.76 1.89-1.16.85-.73 2.13.81 2.1 1.54-.03.93-.13 1.94.47 1.01.6 2.23.93 2.23.19s1.41-3.9-1.56-6.2z" fill="#DBD400" clip-rule="evenodd" fill-rule="evenodd"></path><path d="M50.54 62.15s.57.84.9 3.76c.33 2.91-.83 2.66-1.27 3.35-.43.68-2.64 3.92-3.94 1.43-1.3-2.5.03-3.74-.43-4.39-.46-.66-1.39 1.45-1.88.12s-.26-3.11.1-3.41c.36-.3-.35-2.16.64-2.33.99-.17 5.72.17 5.88 1.49z" fill="#DBD400" clip-rule="evenodd" fill-rule="evenodd"></path><path d="M50.66 79.97s.91 1.55-.18 2.23-1.31 2.05-2.81 2.9c-1.49.85-3.76 1.28-2.86-.37.89-1.64 1.84-2.12.05-2.28-1.79-.16-2.97-.73-2.04-1.45.93-.72-1.86-1.25-.75-1.68 1.1-.42 1.63.42 4 .69 2.37.27 4.59-.04 4.59-.04z" fill="#DBD400" clip-rule="evenodd" fill-rule="evenodd"></path><path d="M63.91 77.84c-.16-.48-1.02-.84-2.72-1.27-1.7-.43-1.54.84-1.39 1.16.16.32-7.61-.78-5.31 1.07s6.87 2.09 6.87 2.09-.98.98.55 1.13c1.53.15 3.17.45 2-4.19z" fill="#DBD400" clip-rule="evenodd" fill-rule="evenodd"></path><path d="M63.17 92.89c-.05.36.89 1.9-.74 3.31-1.64 1.41-1.06 1.63-2.63 2.08-1.57.46-.78-1.34-1.57-1.96-.79-.62-3.58 2.4-3.68-.19-.1-2.6 3.97-4.61 4.67-3.95.7.66 3.08 3.03 3.96.71z" fill="#DBD400" clip-rule="evenodd" fill-rule="evenodd"></path><path d="M66.75 67.88s-.47-2.21-3-.96c-2.53 1.25-4.67.15-5.13 1.91-.46 1.76-3.76 1.51-2.33 2.54 1.44 1.03 3.68-.5 3.31 1.84-.37 2.34 2.29 2.45 3.69 2.17 1.4-.29 4.7-2.28 3.45-7.5z" fill="#DBD400" clip-rule="evenodd" fill-rule="evenodd"></path><path d="M86.96 53.36c0-.9-1.87-.01-2.35 2.27-.49 2.28.52 2.73 1.83 3.13 1.31.4 4.18-4.96 6.29-1.65 2.11 3.32 3.12 7.5-.71 8.69-3.83 1.19-10.73 5.25-15.05 2.18-4.32-3.07-3.58-15.57-1.56-16.29 2.01-.72 11.57 1.66 11.57 1.66z" fill="#F6AB8A" clip-rule="evenodd" fill-rule="evenodd"></path><path d="M97.36 86.41c-2.56-1.1-3.96-2.95-4.72-5.76-.76-2.81-4.44-3.52-6.91-2.42-2.46 1.1-7.11 3.75-5.67 7.4 1.44 3.66 4.05 5.76 7.74 7.1 3.69 1.34 5.16.05 5.79-.37.63-.42 5.26-5.61 7.45-7.23 2.19-1.62 10.51-3.31 10.51-3.31s.63-5.36-3.46-4.6c-4.08.77-5.93.83-6.9 4.03-.97 3.2-3.49 5.21-3.49 5.21l-.34-.06z" fill="#F6AB8A" clip-rule="evenodd" fill-rule="evenodd"></path><path d="M115.97 53.59s-7.52 4.02-4.96 9.44c2.56 5.42 6.16 7.08 8.79 7.08 2.63.01 5.85.65 4.79-1.36-1.05-2.01.05-4.76.05-4.76s-7.04-2.9-4.85-6.52c2.19-3.62 2.22-3.67 2.22-3.67s-2.79-2.32-6.04-.21z" fill="#F6AB8A" clip-rule="evenodd" fill-rule="evenodd"></path><path d="M97.89 66.41c1.33.97 6.93.78 6.23 2.44-.7 1.65 4.47 1.4 5.52 2.14 1.05.74-2.53-.11-6.22-.48-3.69-.37-4.73-.36-10.31.38-5.58.74-9.89 1.48-4.53-.32s11.8-.84 8.56-3.4.74-.74.74-.74z" fill="#CCD7BE" clip-rule="evenodd" fill-rule="evenodd"></path><path d="M68 77.93s4.04-1.15 4.24 6.13c.2 7.29 1.36 9.71 1.36 9.71s2.66-10.22 2.21-12.71c-.45-2.48-.26-6.94-7.82-3.14z" fill="#CCD7BE" clip-rule="evenodd" fill-rule="evenodd"></path><path d="M94.52 100.5s-10.88 1.94-7.19 3.22c3.69 1.28 5.21-.15 5.21-.15s3.58-.73 5.84-1.02c2.26-.28 1.8.96 1.21 1.64s3.44-.23 2.01 1.61c-1.43 1.84-9.07-1.48-5.19 1.86 3.88 3.34 12.18 4.22 5.35 4.27-6.83.06-11.57-1.68-11.13-1.38.44.3 10.22 3.33 3.93 2.87-6.29-.46-7.48-3.39-8.88-2.16-1.4 1.23.13-1.4-3.8-.17-3.93 1.22-7.92 1.92-4.67-.08 3.25-2 6.14-3.34 2.21-4.09-3.93-.75-4.98 1.64-8.6 1.23-3.62-.41-1.47-2.72-4.47-1.88-3 .84-6.84 4.35-5.75 2.32 1.09-2.03 7.63-3.36 2.62-3.5-5.01-.14-14.18-.22-8.2-1.84 5.97-1.62 13.63-3.19 13.52-1.91-.11 1.28-3.79-1.14.96-.29 4.75.84 2.58 1.81 6.42 1.41 3.84-.4 6.64-.56 6.64-.56s8.34-4.85 11.94-1.39z" fill="#DBD400" clip-rule="evenodd" fill-rule="evenodd"></path><path d="M132.95 88.7s-14.89-3.64-22.67-1.19c-7.78 2.45-9.82 4.87-9.82 4.87s36.66 8.17 32.49-3.68z" fill="#EF7734" clip-rule="evenodd" fill-rule="evenodd"></path><path d="M133.71 91.42s-1.29 7.73-4.9 10.4l-3.6 2.67s-2.7 4.73-1.29 4.64c1.4-.08-11.81-.19-11.81-.19l.13-3.5s-4.55-3.54-7.14-7.98l-2.6-4.44s13.24 5.32 31.21-1.61z" fill="#A1D6DC" clip-rule="evenodd" fill-rule="evenodd"></path><path d="M132.62 86.39s.12-6.32-12.48-5.41c-12.6.91-20.66 4.43-21.18 7.51-.52 3.07 1.05 4.31 1.05 4.31s8.97-9.05 20.78-5.41c11.81 3.65 11.84-1.01 11.84-1.01z" fill="#A1D6DC" clip-rule="evenodd" fill-rule="evenodd"></path><path d="M113.85 90.56c1.38 0 2.49.34 2.49.77 0 .42-1.12.77-2.49.77-1.38 0-2.49-.34-2.49-.77 0-.43 1.11-.77 2.49-.77z" fill="#DBD400" clip-rule="evenodd" fill-rule="evenodd"></path><path d="M119.72 89.56c.79 0 1.42.53 1.42 1.18s-.64 1.18-1.42 1.18-1.42-.53-1.42-1.18.64-1.18 1.42-1.18z" fill="#DBD400" clip-rule="evenodd" fill-rule="evenodd"></path><path d="M75.56 77.56c1.73.56 1.65 4.04 1.48 6.5-.07.99-2.49 8.87-2.4 5.95.81-3.07 1.44-6.32 1.11-9.85-.09-.96-.77-1.85-.18-2.6zm45.94-12.08c.33 1.03-.5 2.16-.74 2.79-1.24-.32-.4-2.67.74-2.79zm-3.14-2.42c-.14 1.44-1.81 1.58-1.48 2.97-1.59-.75-.4-3.43 1.48-2.97zm-4.8-1.49c.33-1.12 1.51-2.28 2.58-2.04-.26 1.19-1.77 2.02-2.58 2.04zm2.4-7.99c-.12.81-1.13.72-1.84.93-3.75 3.1-3.57 9.29-.37 12.45 1.6 1.58 5.51 3.85 8.67 3.16-1.71 3.04-6.94-.2-8.86-1.67-4.68-3.61-4.56-10.17-.92-14.49 1.08-.34 2.19-1.09 3.32-.37zm-10.52 9.29c-.45 2.04-.91 5.64-2.03 7.62-.88-2.08.17-6.5 2.03-7.62zm.55-5.57c-.67 2.37-2.93 4.72-3.88 7.43-.15.1-.3.2-.55.19.33-2.96 2.02-6.13 4.43-7.62zm-.37-2.6c-.1 1.22-1.57 1.49-2.4 2.23-2.48 2.22-4.27 5.8-5.35 9.48-.22.28-.77.22-.74.74-.94-2.15.59-3.84 1.66-5.57 1.72-2.77 3.41-6.25 6.83-6.88zm-17.9 4.46c2.57.03 3.63-2.84 5.17-4.46 1.03.51.16 1.87-.18 2.42-.91 1.43-2.8 3.18-4.61 3.35-.15-.4-.48-.64-.37-1.3zm-2.58.74c.4 1.4-1.82 2.33-.92 4.27-2.83.3-.62-3.99.92-4.27zm-.55-4.27c-.23-.79-1.33-1.17-.74-2.23 1.32.59 1.98 1.84 2.77 2.97-.46.47-.72-.21-1.29-.19-2.37 1.45-5.45 2.19-4.98 6.5-.29-.01-.7.09-.74-.19-.93-4.16 2.04-5.99 4.98-6.87zm-7.93 14.86c-.77 1.28-3.9 1.14-5.17 1.3-.92.69-1.99 1.22-2.77 2.04-.3.05-.32-.18-.55-.19-.1-.15-.19-.3-.18-.56 1.46-2.11 5.48-3.46 8.67-2.6zm-19.19-6.88c.74.37.74 1.48 1.11 2.23-1.31.81-2.25-1.6-1.11-2.23zm-4.06-.74c1.79 1.4 2.25 6.77.74 8.73-1.13-.8-.14-2.53-.18-3.9-.06-1.72-1-3.4-.55-4.83zM68 77.93c1.58 1.19 3.42 3.67 4.24 6.13.9 2.69 1.55 6.34.74 9.1-1.57-4.63-1.86-11.27-5.35-14.49.1-.27.27-.47.37-.74zm4.24-.74c1.23 1.46 2.18 3.64 2.03 5.95-.49-.77-1.73-2.72-2.03-3.9-.16-.62-.19-1.41 0-2.04zm2.58 15.05c.22.65.08 1.89-.55 2.23-1.2-.14-.67-2.39.55-2.23zm-5.35-1.11c-.01 1.19.04 3.98-.74 5.02-.95-.95-.93-4.93.74-5.02zm19.74-8.73c-.08 1.41-1.47 2.19-1.29 3.9.22 2.11 2.15 3.33 4.24 3.72-.04 4.1-10.77-6.09-2.95-7.62zm6.64 7.43c.36.45.18 1.55 0 2.04-1.32.29-1.23-2.3 0-2.04zm-1.84-2.04c-.07.32.14.35.37.37-.48.63-.4 1.82-.92 2.42-1.13-.43-.82-2.81.55-2.79zm12.18-7.8c.24.8.3 2.86-.74 2.97-.33-1.04-.99-3.12.74-2.97zm17.71-.74v-.93c.48-.07.56-.55 1.11-.56.08.17.16.33.37.37-.06.87-.71 1.5-1.48 1.11zm-4.61-.19c.53-.95.96-2.01 1.11-3.34.52-.15.48.26.92.19.23 1.85-.74 4.04-2.03 3.16zm-7.93 11.52c-.11-2.66 4.51-1.5 4.24.56-.25 1.95-4.14 2.06-4.24-.56zm2.95.18c-.78.04-1.19-.29-1.84-.37-.28 1.08 1.77 1.29 1.84.37zm3.69-.93c1.03-1.11 3.34-.82 3.88.56-.46 1.14-1.66 1.55-3.14 1.67-.64-.34-.81-1.16-.74-2.23zm2.03.93a.4.4 0 0 0-.74 0h.74zm2.77.19v-.93c.72-.34 1.53.14 2.03.56.03.8-1.58.64-2.03.37zm-3.51 5.95c1.44-.15 4.47-.45 6.09 0-.17 1.01-1.41.93-2.4 1.11-.25.56-.19 1.42-.18 2.23h2.58c-.18 1.66-4.37 2.03-4.98.93.12-.43.33-.78.92-.74.06-.68-.16-1.64.18-2.04-.43-.81-2.71.25-2.21-1.49zm-6.83 3.53c.59-.08 1-.36 1.66-.37-.13-.81.31-1.05.18-1.86-.31-.43-1.59.11-1.48-.74 1.19-1.29 4.34-.84 5.35-.18-.47.93-1.16.55-2.21.74-.4.34-.39 1.1-.37 1.86.74.55 2.5.09 2.95.93-1.38.99-5.34 1.43-6.09-.37zm38.2-3.34c2.05-4.2 4.47-7.85 4.8-13.38.78-12.99-7.43-22.34-18.82-26.38-2.65-.94-5.46-2.1-8.12-1.86.03 1.3 4.63 1.85 7.2 3.34 8.57 5 15.65 12.85 16.24 23.22.44 7.76-3.59 14.38-7.38 19.88 4.54-3.07 25.41-18.22 29.15-21.74 1.26-.22 2.49.71 3.32 1.49-2.15 4.32-6.4 6.71-9.96 9.47-1.82 1.41-3.51 2.92-5.35 4.27-5.47 4.02-11.25 7.93-16.98 11.89-3.81 2.63-7.92 4.85-11.81 7.43-7.46 4.97-15.3 9.8-22.7 15.23-6.11 4.49-16.25 13.16-22.51 15.98-.64-2.14-2.77-3.78-2.77-5.95.23-.75 1.1-.48 1.66-.74 3.4-1.62 6.38-4.77 9.96-6.88 3.6-2.11 6.88-4.52 10.33-6.5-23.8-.37-62.1-7.65-80.08-25.08-4.83-4.68-8.72-15.21-5.9-23.41 5.87-17.08 19.48-21.87 35.98-25.64 1.15-1.59 3.5-.99 4.8-2.23 1.68-.01 2.79.05 3.88.93 1.76-.6 7.02-.73 9.04.19 1.7-.71 3.32.06 4.98.37 3.26.61 6.68-.31 10.15-.19 3.32.12 6.65.78 9.96.74 2.84-.04 5.67-.41 8.3-.56 2.91-.16 5.76-.44 8.86-.37 3.43.07 6.51 1.51 9.96 1.86.56.43.67 1.31 1.29 1.67 3.24-.68 8.32 1.1 11.44 2.42 11.16 4.72 18.69 15.31 17.34 27.87-.33 3.12-1.26 7.08-2.77 9.66-.65 1.11-1.94 2.7-3.51 2.97zM48.63 55.07c-12.72 3.83-22.66 9.86-26.57 23.41-1.5 5.18-.36 11.15 2.03 15.61 11.49 21.4 66.02 31.49 87.46 29.36 4.62-3.03 9.47-5.82 14.02-8.92-18.94 4.13-37.69 1.69-56.65-2.23-4.26-.88-8.67-2-12.92-3.35-13.54-4.31-31.42-9.21-30.45-28.05.71-13.76 12.14-20.54 23.8-24.52 2.46-.84 5.37-1.96 7.57-2.04 1.45-.05 1.9.85 2.58-.19.57-.67-1.17-.2-1.48-.56-.58-1.14-6.84.71-9.41 1.49zm13.65.19c-.73.32-1.27.83-2.21.93-.34-.21-.89-.22-.74-.93-.58-.09-.42.57-1.11.37-3.93.21-6.94 1.32-10.33 2.6-12.84 4.85-25.27 14.87-19.74 30.47 4.66 13.16 21.3 16.15 32.47 19.88-.11-1.64 1.96-2.41 2.77-3.72-3.62.16-8.52.87-8.67-2.97.13.04 12.48-.58 13.84-.56-.77-.2-1.96-.94-1.11-1.67-1.99-.66-4.8-.49-5.54-2.42.75-1.23 1.07-2.89 1.29-4.65-.38-.27-1.11 1.12-1.84.56.35.64.61 1.36.92 2.04-.68 1.86-1.83 3.24-4.06 3.53-.04-.27-.3-.31-.37-.56-.11-.86.41-1.07.37-1.86-1.63.53-2.99.51-3.14-.74-.11-.98 1.48-1.23 2.03-2.23.29-.53-.16-.68.18-.93 1.15-.84 2.28.03 2.95 0-.82-.95.11-2.69.18-3.16-1.09.7-1.15 2.44-2.77 2.6-1.89-.63-1.06-3.57-.55-4.46-.75.88-2.14.01-3.14 0-.53.55-2.48 1.34-3.14.56-.2-.95.79-.69 1.11-1.11-.82-.28-1.14-.06-1.84.19-.73-.71-1.25-.95-1.48-2.42.63-.34.89.03 1.66 0-.11-.6.13-.86.18-1.3-2.09.08-3.75 3.87-5.72 3.16-1.71-.61.19-3.17 1.11-3.9-1.11.57-3.73 1.06-4.06-.56.16-.65 1.5-1.08 1.29-1.49-.74.43-2.3.1-2.4-.74.53-1.51 2.45-1.63 4.24-1.86-.62-2.35.12-4.8 1.11-6.13-.64-.03-.93-.43-1.11-.93-.21-1.45.66-1.81.92-2.79-1.19-.14-3.07 1.26-3.32-.19.31-1.49 2.73-1.84 3.14-2.6-1.24.43-2.86.91-3.69 0-.07-1.74 1.59-1.74 2.4-2.6-.39-.35-.97-.51-.92-1.3 1.41-1.6 4.94-.76 6.64 0 3.4-2.32 7.22 1.53 11.07.93-.84-1.62.63-3.51-.18-5.02.89-.1 1.11-1.84 1.29-2.04zM45.49 79.04c-.78.08-2-.28-2.03.56.51-.26 1.83.39 2.03-.56zm2.21 1.11c-1.24-.29-2.66.77-3.5 1.49 1.2-.08 2.91-.59 3.5-1.49zm2.4-17.46c-1.35-.24-3.32-1.66-4.8-.56 1.46.21 3.5.81 4.8.56zm.37 19.51c0-.81-.06-1.67.18-2.23-.99.24-1.33 1.14-1.48 2.23-1.38-.08-2.68 1.33-3.32 2.6 1.68-.72 2.54-2.27 4.61-2.6zm-4.24-5.2c1.17-.88.49-2.37 0-3.53-.18 1.17-.52 2.65 0 3.53zm2.77-11.52c-.45-.8-2.37-.57-2.95 0 .87-.25 2.08-.25 2.95 0zm2.77 3.34c-.54-1.35.22-4.46-1.48-4.09.05.76-.07.42-.55.37.63.73 1.12 1.82.55 2.6-1.26.2-4.54.1-4.06 2.97 1.73-.83 3.59-2.86 5.54-1.86zm-4.06 10.03c.3-1.17.67-2.17.37-3.16-.3 1.12-.84 2-1.48 2.79.43.06.76.22 1.11.37zm.55-4.46c.92-.85.07-1.67.18-3.16-1.16.01-.87 2.49-.18 3.16zm2.03 3.53c-.75.17-1.42.42-1.29 1.49.66-.26 1.23-.62 1.29-1.49zm.18-1.86c-.18-.74.55-.56.37-1.3-.33-.35-.47.15-1.11 0-.33.65-.23 1.46.74 1.3zm.18-3.16c.05-.82.29-1.44.18-2.42-.66.11-.54-.57-1.11-.56-.23 1.31.23 2.15.92 2.97zm6.09 13.56c.05 0 .43-.77.55-.37-1.16-1.33-.93-4.96.92-5.39-2.48-.49-2.46 1.42-4.08-2.76 1.54-.76 4.56-2.1 5.92-2.81-2.32-.03-1.24-2.24.18-2.42-1.46-.1-3.76-.06-4.24-2.04.58-.78 1.83-.88 2.77-1.3 0-.44-.32-.55-.18-1.11.88-.48 1.31-1.4 2.58-1.49-.21-1.21.05-1.33 0-2.97-1.44.07-3.04-.59-4.61-.93-1.89-.41-4.04-1.62-4.98.19.34.52 1.27.45 1.29 1.3.27.7-.51.36-.37.93 1.19 6.8-.58 13.95-.92 19.88 1.39.37 3.8 1.36 5.17 1.3zm10.15 17.65c1.04-.65 2.68-.73 3.32-1.3-4.91-.72-9.52-.12-14.02 0 3.41 2.18 7.33-.36 10.7 1.3zm-6.46-10.4c-1.91-.19-2.55.9-3.69 1.49 1.54-.18 2.68-.77 3.69-1.49zm3.51-12.63c.42-3.71-2.17-5.08-4.98-4.46-.6.21.5.21.74.19 1.24.67 3.42.4 3.51 2.23-1.83-.23-4.95.02-6.46.19 1.99.56 4.05.23 6.46.19-.01.26.09.41.18.56-.03.4-1.04 1.38-.55 1.11.5-.21.46-.09 1.11 0zm-5.72 9.29c.18-.69.15-1.79 0-2.42-.39.52-1.03 2.09 0 2.42zm.18-5.2c.98-.52 1.6-1.9 1.29-3.16-.85-.22.32.78-.37.93-.4-.28-1.04-.32-1.29-.74-.47.58-.47 2.31.37 2.97zm.18 2.23c-.39-.11.27-.7.18-1.11-.58.04-.89.34-.92.93.24-.03.56.76.74.19zm7.38-16.35c-.15-.53.26-.48.18-.93-3.26.24-5.84.09-7.93 1.11 3.03.75 5.11-1.35 7.75-.19zm-3.87-19.14c-1.04-.29-2.99-.74-3.69.18 1.22.44 3.14.98 3.69-.18zm-.92 43.1c-.53-.04-.94.05-1.11.37.69.28-.73 1.56-.18 1.11.45-.48 1.2-.65 1.29-1.49zm0-8.17c-.39-.23-.72-.51-1.11-.74-.23.58-.43 1.18-.37 2.04.94.02 1.25-.6 1.48-1.3zm-.18-5.2c-.13-.51.37-.37.37-.74H60.25c.02.47.27.72.74.74zm1.29-13.19c-.42-.6-1.59-.25-2.03.18.87.03 1.75-.13 2.03-.18zm-.18 20.44c-.35-.02-.13-.61-.55-.56-.06.38-.5.36-.55.74.3.32.95.17 1.11-.19zm1.11-15.61c-.47.3-1.42-.14-1.84.56.71.03 2.3-.03 1.84-.56zm-1.48 11.33c.87-.55 1.92-.91 1.84-2.42-1.06-.24-1.05 1.31-2.03.56.05.63-.14 1.51.18 1.86zm1.48 7.06c-.2-.95.32-2.15 0-2.6 0 .31-.51.1-.55.37.51.77-.12 1.98-.55 2.42.43 0 .54-.32 1.11-.19zm-.37-29.17c.18-.86.63-1.47 1.11-2.04-.85.07-1.06.23-1.84 0-.01.93.17 1.68.74 2.04zm3.14 44.96c-1.12.6-2.73.72-3.69 1.49 4.32 1.03 8.66 2.06 13.29 2.79-.08-1.82 1.09-2.37 2.4-2.79.41-.39-.24-.55-.18-1.11.31-.43 1.02-.46 1.29-.93-3.44.65-7.61 3.81-11.07 2.04-.51.36-1.02.71-1.84.74-1.07-.36-.16-2.01-.18-2.23zm-3.14-43.1c-.22 1.13-.77 1.41-.37 2.42h.92c-.35-1.2.1-2.08-.55-2.42zm.37-5.02c1-.88 1.24-1.81.55-3.16-1.27.3-1.26 2.32-.55 3.16zm4.43 46.26c-1.23.25-1.2-.78-2.4-.56-.71.83-2 1.08-2.4 2.23 1.85-.67 3.5-.73 4.8-1.67zm-4.06-18.77c-.52.03-.79.32-.74.93.68.13.81-.29.74-.93zm1.48-13.94c.32-.17.64-.34.55-.93-1.07-.11-1.84-.33-2.77.19 1.26.12 1.34.28 2.21.74zm-1.48 12.82c-.13-.57-.13-.36 0-.93h-.37c0 .19-.15.22-.18.37.44-.07-.1.84.55.56zm1.48-28.43c.11-.45.7-.41 1.11-.56V55.26c-.98-.07-1.13-.97-2.4-.74.06.36-.25.37-.37.56.99.3 1.05 1.54 1.66 2.23zm45.2 17.84c-1.17.07-2.57.53-3.69.37-1.49-.2-2.65-1.04-3.88-1.11-1.84-.11-3.55.79-5.54.74-1.45-.03-2.69-.69-4.06-.74-1.2-.04-2.54.47-3.88.56-8.17.55-16.48.96-25.46 1.11-.11.01-.22.03-.18.19.54 1.12 1.45 2.08 1.66 3.16.35 1.83-.53 3.58-.37 6.13.25 3.81-.08 8.43-.92 11.52 2.42 1.27 4.36.26 7.2-.19 3.29-.52 6.83 1.01 10.7.56 2.39-.28 4.33-.93 6.83-.74 3.62.27 7.87.21 11.07.74-1.21 2.47-7.75 1.31-10.33 1.11-3.19-.24-6.12.58-8.86.74-3.98.23-7.78-1.63-11.07 0 1.92-.54 2.61 1.19 3.69 2.04 2.31-2.44 6.7-.33 9.41.56 1.75-.46 4.26-1.4 6.27-1.67 2.16-.29 5.18-.49 6.27.74-1.9 2.11-6.12 1.89-8.86 3.16 1.98-.3 3.91-.65 6.27-.56 1.02-1.19 3.63-1.89 5.91-2.23 1.5-.23 4.06-.61 4.61.37.72 1.28-3.38 1.63-4.06 3.16 1.86.54 3.85.95 4.06 3.16-1.06.73-3.26.31-4.61.74 1.79 1.23 4.15 1.89 4.98 4.09-2.35 1.41-3.7-.52-5.72-1.3-1.3-.5-2.86-.67-3.88-1.11-.91-.4-1.74-1.57-2.77-1.11 1.45 1.34 6.88 3.23 3.51 5.39 6.79.32 28.3.36 33.58-1.67 4.04-2.25 7.47-5.11 11.44-7.43 4.61-4.28 9.8-13.36 10.7-19.88 1.65-12.01-10.16-26.22-21.4-27.68.14 6.11.1 12.45-2.4 16.54 1.5.41 2.52 1.3 3.5 2.23-.06 1.96.13 3.94-.18 5.2 2.78.31 4.51 3.8 4.8 6.13.21 1.71-.85 2.42-1.11 4.09-.14.87.26 1.83.18 2.6-.52 5.53-4.3 7.9-8.49 9.66.02 1.67.03 3.83.18 5.57-3.47 1.74-9.97 1.3-14.58.37-.2-2.09-.61-3.97-.92-5.95-5.36-1.34-10.63-6.79-9.88-11.69-3.5-1.75-2.38-5.3.1-7.08 2.64-1.9 7.75-3.31 10.7-3.9-.65-.51.04-1.45-.37-2.23-1.53-2.92-6.54-.47-7.57 1.11-.67 1.04-.33 3.27-2.03 2.97.16-1.4.19-2.8 1.11-4.09 2.33-3.28 11.3-3.74 9.6 2.23 4.79-.7 12.01-1.53 17.16 0-.07-1.48-.58-2.52-.37-4.27-3.67-2.96-11.65-2.82-18.08-2.41zm-44.1-6.32c-.39-.67-1.94-1.03-2.58-.37.39.73 2.19.14 2.58.37zm-.92-17.28c-.05-.64-1.57-1.11-1.66-.56.56.18 1.1.37 1.66.56zm-.74 12.63c1.17-.29 2.02-1.83.74-2.6-.04.22-.2.12-.37 0-.31.96-1.02 1.62-.37 2.6zm.92-10.96c.03-.54-1.11-.85-1.29-.56.59.03.81.99 1.29.56zm.37 4.64c-3.93 4.11 3.49 1.59 0 0zm.18 9.29c.85.12.47-1.02.55-1.67-1.03-.32-.82 1.26-.55 1.67zm18.64 6.69c-.42-3.35-5.11-.42-6.83-2.97 3.1.13 6.63.25 8.3 2.42 4.09-.37 8.59-.61 12.18.19-.14-1 .63-3.35 1.48-3.35.6.99-.56 1.78-.37 2.97 2.91-.33 5.94-.16 8.12.74 5.79-.42 13.03-1.03 17.53.18 2.17-4.82 3.14-14.09.92-19.69-.96-.39-2.07-.64-3.14-.93.86 1.37-1.26 2.1-1.84 3.16-.72 2.88.3 5.15 1.84 6.32.59.4 1.96.01 1.84 1.11-2.36.48-4.66-2.19-4.98-4.09-.52-3.11 1.58-4.92 2.77-6.69-7.9-1.98-17.4-.04-26.39-.56-5.95-.34-10.67-.14-16.42-.19-1.66.99-3.31 2-4.43 3.53-.59 5.36.42 9.25 3.69 11.15 6.57 2.69 14.2-1.17 15.13-7.25.23-1.5-.51-3.42 1.11-4.64.13 3.77-.21 7.29-2.4 9.85-1.19 1.39-4.55 3.44-6.09 3.9-8.28 2.48-14.79-4.77-12.36-13.94 1.33-1.08 2.13-2.68 4.24-2.97-2.07-.55-4.18-.35-6.27-.56-.61 2.36.48 4.33-.18 6.5-.13.42-.44.67-.55 1.11-.81 3.19-1.13 6.6-2.95 9.1-.45-4.52 3.04-8.76 2.95-13.01-.03-1.42-1.34-2.85.37-3.9-1.79.16-3.29-.11-5.35.37 1.12 5.09 1.9 12.34.92 17.84.26.93 1.06-1.39 1.84-.56-.18 1.16-.94 2.94-2.03 2.04.01 1.43-.5 2.35-.74 3.53 5.81-.75 12.52-.22 18.08-.74zm-12.55 32.14c-.49-.18-.97-.38-1.66-.37-.73 1.06-2.62.95-3.5 1.86.81-.03.05.53 0 .74 1.66-.8 3.51-1.42 5.17-2.23zm0-4.46c-.84-.79-2.28-1.94-3.14-.74.84.33 2.12 1.2 3.14.74zm5.17 4.64c-1.88-.42-5.22.9-7.2 2.04 2.32-.05 4.78-1.48 7.2-2.04zm6.27-1.11c-3.21-1.38-9.01-1.7-12.92-.74 4.27.68 9.94.13 12.92.74zm-7.57-2.6c-.92-.19-1.67-.54-2.4-.93-.42 1.42 1.68 1.28 2.4.93zm2.95-.56c-.63.09-2.49-.99-2.77-.18.89-.02 2.37.89 2.77.18zm4.61 6.5c-2.47.49-5.19.72-6.27 2.6 2.62-.33 5.06-.85 6.27-2.6zm9.96 5.95c-2.82-1-4.95-2.69-7.38-4.09-.66 2.72-3.71 3.32-2.03-.19-1.76 1.01-3.9 1.64-6.09 2.23 5.16.7 10.63 2.15 15.5 2.04zm-12.92-8.18c-.78-.27-1.48.47-1.11.74.2-.42.91-.33 1.11-.74zm0-3.9c-.45.08-.4-.34-.92-.18v.56c.33-.1.77-.1.92-.37zm5.17 3.9c3.18.14 8.42-.11 11.99-.37-4.91-1.32-12.27-1.15-16.24 1.67 1.76-.49 3.21-.21 4.24-1.3zm5.54-4.83c-3.51.25-6.95.55-9.23 2.04 2.97-.14 6.64-.92 9.23-2.04zm3.32 12.08c-1.6-1.79-4.21-2.57-5.72-4.46-1.57.3-1.96-1.44-3.14-.93-.01-.2-.24-.15-.18.19 2.69 2.06 5.48 4.02 9.04 5.2zm43.55-5.57c-2.5 1.63-4.83 3.64-7.38 5.2a471.69 471.69 0 0 0-7.75 4.83c-3.11 1.99-6.82 3.77-9.04 6.13-10.16 4.45-18.38 10.85-27.12 16.72-.11.01-.22.03-.18.19 1.14.4 1.05 2.03 1.84 2.79 4.87-2.99 9.37-6.54 14.21-9.85 2.39-1.64 4.58-3.52 7.01-5.2 2.44-1.69 5.08-3.15 7.57-4.83 2.46-1.66 4.69-3.57 7.2-5.2 12.65-8.26 25.11-16.72 37.09-25.27 4.28-3.05 11.17-6.72 14.05-11.13-.07.01-.59-.96-1.37-.43-5.62 3.87-28.36 21.01-36.11 26.05zm-36.35 4.09c-.63-.84-1.78-.98-2.58-1.3-2.37-.94-5.43-4.12-9.04-3.16 3.54.98 8.16 3.41 11.62 4.46zm-1.11-9.66c-2.3.29-4.7.47-6.27 1.49 2.74 1.09 4.47-.25 6.27-1.49zm-3.14 6.13c.42-1.7 3.43-.11 3.88-1.11-1.9.29-3.58-.35-4.98.37.58.04.76.48 1.11.74zm21.77-13.94c3.99-.08 10.24-.64 12.73-2.79 2.22-1.92.96-5.71-.92-7.43-2.14-1.96-8.5-2.44-13.1-2.04-3.14.27-7.83.75-10.89 1.67-3.52 1.06-10.36 4.15-6.09 7.25 4.84-4.6 18.87-6.9 27.86-4.64 1.49.37 3.18 1.06 4.06 2.23-.58.1-.91.44-1.11.93-8.6-3.74-22.87-2.71-29.71 2.23 4.24 1.59 10.95 2.72 17.16 2.6zm-13.65 5.76c.19-.49.75-.61 1.48-.56-.13-1 .21-1.52.37-2.23-.66-.57-2.29 1.01-2.58-.37.82-1.83 5.9-1.09 6.27.56-1.08 0-1.26.19-2.21 0-.28.52-.45 1.16-.37 2.04.95.47 3.01-.18 2.95 1.3-1.22.51-3.59-.15-4.8.37 5.68 4.51 20.16 3.6 23.43-1.86-.77.4-3.12 1.47-3.5 0 .25-.36 1.11-.12 1.11-.74-.34-.4-.12-1.36-.18-2.04-.64.08-1.38.46-1.48-.37.45-1.13 3.47-1.66 4.24-.74-.02.72-.8.68-1.48.74v2.42c.96-.13 1.09-.09 2.21-.18.68-1.61 1.38-3.2 1.29-5.57-9.59 4.33-22.2 3.59-31.37.37 1.46 2.37 2.3 5.36 4.62 6.87zm6.46 8.73c3.79.93 8 1.3 11.81.19 0-1.58-.19-3.21-.18-4.27-3.92 1.23-8.21.66-12.36.56.67.75.42 2.43.74 3.53zm-21.96 37.53c-.13-.51.37-.37.37-.74 2.56-.89 11.65-8.57 14.95-10.96 10.72-7.78 21.78-16.14 33.4-23.22 13.38-8.17 27.32-15.67 38.01-26.75 1.38.34 2.4 1.05 3.14 2.04-1.24 1.91-3.28 3.08-4.98 4.46-11.83 9.6-23.99 19.82-37.83 27.68-1.99 1.13-3.83 2.68-5.9 3.9-5.8 3.41-11.65 7.86-17.16 11.89-6.49 4.75-13 9.46-19.19 14.68-.74.62-.65 1.24-1.82.98-.29-.21-2.52-3.08-2.98-3.96zm3.88 1.86c13.1-11 27.73-20.74 42.44-30.28 7.36-4.78 14.61-9.5 21.4-14.86 2.4-1.89 19.49-14.67 19.74-16.35-.63-.04-12.75 10.2-15.13 11.71-5.61 3.56-10.98 7.19-16.61 10.59-3.77 2.28-7.76 4.24-11.44 6.69-14.58 9.71-28.44 20.48-42.07 30.66v.37c.5.55.85 1.25 1.66 1.49zm3.69-61.87c-.25 1.68-2.92.82-3.32.56-2.11-1.38-.55-6.11-2.03-7.62-3.24-3.07-9.8 1.31-10.33 5.2-.96 7.05 6.48 7.78 10.89 8.36-2.39 3.3-8.57-.14-10.52-2.42-6.36-7.4 6.48-18.52 11.81-10.59-.02 2.19.23 4.11.74 5.76.6.95 1.91.51 2.77.74z" fill="#67412E"></path></g></svg>
