<svg aria-hidden="true" focusable="false" viewBox="20 50 160 100" xmlns="http://www.w3.org/2000/svg"><g><path d="M163.85 84.65s-29.54-28.09-75.23-26.43c-45.69 1.66-80.8 31.57-63.71 58.51 17.09 26.94 86.69 42.88 116.73 26.14 30.04-16.74 35.73-46.05 22.22-58.22z" fill="#E7C9B5" clip-rule="evenodd" fill-rule="evenodd"></path><path d="M72.77 86.4s5.12 6.13 2.23 12.74c-2.89 6.61-9.36 6.85-9.36 6.85l-20.89-.76-2.48-4.9s12.62 5.12 17.2 3.95c4.57-1.17 11.52-4.83 13.31-17.88z" fill="#F9E044" clip-rule="evenodd" fill-rule="evenodd"></path><path d="M76.36 114.68c1.17.58-17.7 9.54-29.65 2.36-11.95-7.19-7.38-11.81-7.38-11.81s-10.31 18.08 18.47 21.2c28.78 3.12 18.56-11.74 18.56-11.74z" fill="#F9E044" clip-rule="evenodd" fill-rule="evenodd"></path><path d="M72.77 86.4s5.12 6.13 2.23 12.74c-2.89 6.61-9.36 6.85-9.36 6.85l-20.89-.76-2.48-4.9s12.62 5.12 17.2 3.95c4.57-1.17 11.52-4.83 13.31-17.88z" clip-rule="evenodd" fill-rule="evenodd" opacity=".3"></path><path d="M76.36 114.68c1.17.58-17.7 9.54-29.65 2.36-11.95-7.19-7.38-11.81-7.38-11.81s-10.31 18.08 18.47 21.2c28.78 3.12 18.56-11.74 18.56-11.74z" clip-rule="evenodd" fill-rule="evenodd" opacity=".3"></path><path d="M68.35 84.07s4.92 4.68 2.3 10.29c-2.61 5.61-12.5 10.09-12.5 10.09l-14.03-5.6 24.23-14.78z" fill="#F9E044" clip-rule="evenodd" fill-rule="evenodd"></path><path d="m38.51 107.06 40.41-2.08s4.36 5.49-5.65 10.52c-10.01 5.03-25.05 11.07-34.76-8.45z" fill="#F9E044" clip-rule="evenodd" fill-rule="evenodd"></path><path d="M158.08 113.56c-1.2-1.2-6.33-5.56-4-11.68 2.33-6.12 2.79-7.64 2.79-7.64l6.41 10.25 12.91-5.88s1.12 9.64-5.15 13c-6.27 3.35-4.66 3.72-4.66 3.72s4.32 8.72 4.89 13.01c.57 4.3-1 4.68-1 4.68s-6.15-1.15-8.65-5.61c-2.51-4.46-3.74-5.2-3.74-5.2s-3.22 6.32-7.49 8.27c-4.27 1.95-5.67 1.95-5.67 1.95s6 .64 8.6 5.05c2.6 4.41 1.81 3.84 2.6 4.41.79.57-12.49-4.17-12.49-4.17s-1.21 6.03-5.11 8.21c-3.9 2.19-4.34 5.18-5.01 2.93-.68-2.25-2.88-8.92-.19-12.26 2.69-3.34 6.78-6.59 6.78-6.59l-3.25-7.15s3.7-1.34-1.45 5.6c-5.14 6.94-9.25 9.6-11.25 10.23-2 .64-2.53-3.01-2.53-3.01s3.64 3.46-3.31 6.05-8.52 3.8-7.74 3.79c.78-.01.74-9.85.74-9.85l-9.66 1.21 5.04-7.05-.25-7.38s-15.05-.93-15.38-1.45c-.33-.52 13.47-8.82 13.47-8.82l9.47 1.67 4.46-1.58-8.92-8.82s6.56-2.4 10.82-1.23c4.26 1.17 8.06 2.11 7.72 3.01-.34.91 3.56-10.15 3.56-10.15s2.6 6.32 3.34 8.27c.74 1.95 4.83-.93 4.83-.93l-.8 3.98 11.57-.82s-.4 1.84-.09 2.32c.3.48-5.63 1.78-9.84 2.14-4.21.36-4.29-1.72-5.85-.56-1.56 1.16-4.56 5.83-5.15 6.45-.59.62-1.16-4.14-1.16-4.14l-8.45 1.99-1.06 1.78 9.84 2.71s4.95-7.13 8.75-6.15c3.8.99 14.72-.49 14.72-.49s-.36 5.29-4.99 7.61c-4.63 2.31-8.68 2.88-8.68 2.88l2.14 5.67 5.78-5.08 1.97-.74 6.89.49s-7.69-2.96-7.11-2.47c.57.49 7.91-6.59 10.03-6.41zm1.02 2.24-.46 4.17-7.34-.28s3.34-3.25 7.8-3.89z" fill="#86B68E" clip-rule="evenodd" fill-rule="evenodd"></path><path d="M107.09 89.32s-6.98-1.02-7.98.92c-1 1.94 2.19 4.68 4.37 3.99 2.17-.68 5.85 1.58 3.62-4.92z" fill="#F9E044" clip-rule="evenodd" fill-rule="evenodd"></path><path d="M151.3 66s-2.55-1.7-3.71-1.3c-1 .34-10.54.21-12.93.54-.28.2-.47.28-.53.21-.07-.08.14-.15.53-.21 1.8-1.28 7.36-7.55 7.36-7.55s-7.06 3.45-10.07 4.38c-3.01.94-4.47 4.66-4.32 5.6.15.94-3.81-.37-4.27-1.11-.47-.74 1.53-4.99 2.16-5.76.63-.77 6.76-5.2 6.76-5.2s-6.59 3.25-7.34 3.72a1.34 1.34 0 0 1-1.95-.58c-.3-.71-6.78-5.45-6.78-5.45l1.11 4.74-2.24-1s-5.94-.27-7.05-.3c-1.11-.03-3.28-.19-4.2-1.29-.92-1.1-2.42-2.81-4.81-3.54-2.39-.73-4.01 5.16-4.46 5.02-.45-.15.56 1.94.56 1.94s4.75-2.68 5.38-2.71c.63-.03 1.12 1.69 2.19 2.49 1.07.8 4.16.48 7.33 1.09 3.17.6 8.03 4.53 9.24 4.68 1.2.15.86 2.17.64 2.98-.22.81-1.73-.32-4.71-1.11-2.98-.79-3.44-2.2-6.41-3.04-2.97-.84-3.53-.46-4.55-.09-1.02.37-.84 1.11-2.32.93-1.49-.19-4.53-.4-8.68-.04-4.16.36 2.65 2.08 5.9 2.24 3.25.16 3.44 1.23 5.95 1.98 2.51.74-.55 1.98.37 3.16.92 1.18 6.78.19 6.78.19l-6.48 2.41-.72-.97s-7.3.11-9.15.7c-1.85.59-5.79.98-10.12.56-4.34-.43-3.42 3.07-3.42 3.07s6.44-1.59 9.18-1.03c2.74.56 11.28-1.1 11.28-1.1s-3.76 1.47-4.13 1.94-1.03 3.23-2.41 3.81c-1.38.58-2.42 5.02-2.5 6.56-.09 1.54-.94 3.75-.05 3.44.88-.31 1.6-5.1 1.6-5.1l3.53-2.26s7.6 1.37 9.87 1.69c2.27.33 1.39-.44 1.57-.53.19-.09 2.39-1.37 3.35-1.84.96-.47 4.17-1.69 7.23-1.69s10.04 2.31 12.19 2.83c2.15.52-2.81-1.36-4.43-1.97-1.61-.61-2.95-3.2-1.42-3.05 1.53.15 4.64.67 7.42 1.27 2.77.6-.45-1.32.4-1.58.85-.27 2.84-2.71-.87-3.23-3.71-.53-.05.01 2.52-2.49 2.57-2.5-.02-1.58-.02-1.58l-5.52-.96s6.56-1.6 8.38-2.29c1.82-.69 11.8-2.19 11.8-2.19z" fill="#FAFAFB" clip-rule="evenodd" fill-rule="evenodd"></path><path d="M126.39 87.52s-18.72 3.86-18.18 3.75c10.59 7.53 18.18-3.75 18.18-3.75z" fill="#FAFAFB" clip-rule="evenodd" fill-rule="evenodd"></path><path d="M108.21 51.79c-.47-.55 3.71-2.42 5.85-.46 2.14 1.95 3.52 5.05-.89 4.08-4.42-.97-4.96-3.62-4.96-3.62z" fill="#F9E044" clip-rule="evenodd" fill-rule="evenodd"></path><path d="M92.56 59.1c.63.13 2.37 2.27.89 3.75-1.49 1.47-2.25 2.1-1.49 1.47.76-.63 1.8.99 1.23 2.29-.57 1.3-.27 2.06-2.81 2.83-2.53.78-6.5.93-5.67-1.49.84-2.42 3.06-4.05 3.06-4.05s-1.46 1.68-2.32-1.89c-.85-3.58-.73-3.59.28-3.65 1.02-.06 6.82.74 6.82.74z" fill="#F9E044" clip-rule="evenodd" fill-rule="evenodd"></path><path d="M82.26 76.17s3.01 3.04-1.77 4.71c-4.78 1.66-6.04 2.36-8.48.44-2.44-1.92-.95-4.47.48-5.31 1.44-.83 9.77.17 9.77.17z" fill="#F9E044" clip-rule="evenodd" fill-rule="evenodd"></path><path d="M84.34 81.24c-.07-.51-5.41.49-5.42 3.82-.01 3.33 1.44 4.59 3.2 4.43 1.76-.17 6.68-4.16 2.22-8.25z" fill="#F9E044" clip-rule="evenodd" fill-rule="evenodd"></path><path d="M93.43 92.68s2.11 2.07 3.2 4.18c1.09 2.12-3.83 3.42-4.49 1.37-.65-2.04 1.29-5.55 1.29-5.55z" fill="#F9E044" clip-rule="evenodd" fill-rule="evenodd"></path><path d="M127.33 63.31s2.64-1.21 2.02 1.34c-.62 2.55-4.52 4.13-5.26 3.02-.74-1.11-.28-3.51-.02-4.1.26-.6 3.26-.26 3.26-.26z" fill="#F9E044" clip-rule="evenodd" fill-rule="evenodd"></path><path d="M146.06 79.4s2.91 1.08-.89 2.95c-3.8 1.87-7.65.78-8.54-1.21-.89-1.99 2.39-2.68 3.94-2.88 1.55-.2 5.49 1.14 5.49 1.14z" fill="#F9E044" clip-rule="evenodd" fill-rule="evenodd"></path><path d="M145.16 71.76s5.08.04 2.98 1.89c-2.1 1.85-7.14.07-7.98-.4-.84-.46.98-1.72.98-1.72s.74-1.48 4.01.23z" fill="#F9E044" clip-rule="evenodd" fill-rule="evenodd"></path><path d="M100.32 68.57s3.55 3.69 1.12 4.55c-2.43.86-10.85 2.69-8.72-.58 2.13-3.26 7.59-3.98 7.59-3.98z" fill="#F9E044" clip-rule="evenodd" fill-rule="evenodd"></path><path d="M101.55 61.93s-1.67 1.36-2.92 1.54c-1.25.18-1.37-1.74-1.37-1.74s4.61-2.66 4.3.2z" fill="#F9E044" clip-rule="evenodd" fill-rule="evenodd"></path><path d="M108.19 77.18c-.02.84-2.79-.39-2.75 2.14.04 2.53 1.86 2.32.04 2.53-1.82.21-2.95-.98-2.95-.98s.25-5.66 5.66-3.69z" fill="#F9E044" clip-rule="evenodd" fill-rule="evenodd"></path><path d="M119.25 73s1.04 2.27.52 3.47-2.5 2.26-3.85 1.97c-1.35-.28-2.3-1.92-1.96-3.71.34-1.8 5.29-1.73 5.29-1.73z" fill="#F9E044" clip-rule="evenodd" fill-rule="evenodd"></path><path d="M126.39 87.52c.36 1.58-1.53 3.16-2.71 4.18-3.62 3.12-9.34 4.41-15.99 2.21-2.62 2.21-8.97 2.06-9.59-1.72-.52-3.15 2.48-4.59 5.41-4.43 2.1.12 3.31 1.86 5.66 2.46 6.22 1.59 12.97-2.84 17.22-2.71zm-18.69 14.27c3.62 1.65 7.14-1.64 11.31-1.72 4.14-.08 7.42 2.47 8.85 5.17-.87-4.54.56-9.78 3.69-11.81 2.02 2.32 3.63 5.06 4.43 8.61 3.17-1.24 4.38.03 5.17.25-.43 1.95-2.4 2.35-3.2 3.94 5.11 1.21 8.49.45 12.54-1.72 1.39.89.45 2.23.74 3.44-3.28 2.51-9.66 3.31-15 2.46-1.19.7-1.41 2.36-2.21 3.44 4-3.18 13.98-3.98 20.41-1.48-1.85 3.15-5.24 4.76-7.87 7.13 3.84-1.98 7.7-3.94 10.33-7.13-2.7-2.81-5.68-6.02-4.43-12.3.25-1.24 2.7-8.44 3.44-8.86 1.7.52 6.93 11.53 7.38 13.29 2.82-5.75 10.4-7.11 16.72-8.12-1.33 5.23-2.42 12.83-6.88 15.74-.13 3.48-1.04 6.17-3.69 7.13 1.45 3.7 3.75 9.7 2.21 14.02-2.39-.35-9.64-2.26-9.35-3.44-.83-.01-3.1 2.57-3.94 3.2-1.5 1.13-2.7 1.99-4.18 2.71.69 2.31 4.13 3.65 3.94 6.15-.32 4.1-8.08.71-11.07.24-2.24 1.08-4.13 3.68-7.38 2.95-2.6 1.42-4.43 3.6-7.13 4.92-.83-.4-.61-1.84-.98-2.71-6.66 1.14-15.24-.21-21.64 2.21-.37-.37-.44-1.04-.98-1.23-7.86-.6-15.57-1.36-23.09-2.53-13.16-2.06-31.02-6.61-42.82-12.64C4.47 113.4 14.98 75.97 69.75 59.13c5.26-1.5 13-4.1 19.01-2.86.65.14 2.81.92 4.18.49 1.44-.45 3.18-7.09 8.85-5.9 2.07.43 3.14 4.04 4.67 4.67.21.79-.64.51-.74.98 2.36.39 7.23.1 9.35.49.42-.07-1.09-1.42-.74-1.23-1.89-.98-7.7-.45-7.13-3.69.45-2.58 9.82-3.08 10.08.24-.69.2-.64-.34-1.23-.24 2.37 2.47 6.24 3.43 7.13 7.38 2.71-1.11 7.24-5 10.57-4.67-.29 3.09-5.54 3.31-6.64 6.39 1.41.72 3.38.89 3.69 2.71 1.91-4 6.44-6.67 12.05-6.15-.25 2.42-4.09 3.25-4.92 5.9 7.04-.07 16.39.34 20.41 5.17-2.74.58-5.55-1.35-8.61-1.72-7.01-.86-12.29 1.62-16.97 4.18 1.5.14 3.42.35 4.92 0 1.02-.24 1.79-1.18 2.71-1.48 2.02-.65 4.59.14 5.9-.98 3.76 1.62 7.04 3.96 10.33 6.64 6.45 5.25 15.9 11.04 15 22.39-2.63-.1-2.12-3.81-2.7-5.41-2.06-5.63-7.51-10.5-12.05-14.02-2.63-2.04-5.61-4.32-8.61-6.4-.04.79.03 2.48-.98 2.95 1.3.46 21.12 8.92 16.97 25.83-1.78-.73-1.11-2.67-1.23-3.94-.7-7.5-8.57-18.01-16.48-19.93.63 1.95 1.91 2.92 1.23 4.67-1.46 3.77-11.92 3.5-12.05-.98-3.07-.86-6.46-1.41-10.08-1.72 4.99 2.47 11.31 3.61 13.77 8.61-1.93.99-4.68-.83-7.38-1.72-4.52-1.49-8.28-3.99-15.25-3.44-1.56.81-2.37 2.38-4.43 2.71.25 1.15 2.59 1.5 2.21 2.46-1.12 1.63-3.59.37-5.41 0-3.65-.74-7.79-1.68-11.8-2.46-.23 2.38-2.67 3.45-1.97 6.39.45 1.89 3 2.33 2.95 4.43-.07 3.09-5.55 4.99-7.38 2.21-1.14-1.73.66-11.62 2.21-13.04-1.84.77-4.12.73-6.39 1.72-1.93.84-3.07 2.58-4.67 2.71-2.37.18-4.18-1.55-5.17-3.94.43-.54.52-1.58 1.23-2.21 1.34-1.21 7.37-3.96 8.61-1.97-2.35 1.36-6.02 1.32-7.87 3.69.27 3.85 6.1 2.99 6.89.24.55-.79-.72-1.46-.49-2.71 3.02.17 6.38-2.13 9.35-1.97 1.26-.62 1.51-2.26 2.46-3.2-3.66-.2-5.54-.03-8.36 0-1.08.01-4.01.79-3.94-1.48 2.56-.37 5-.09 7.87-.24-1.79-1.75-6.39-1.01-8.85 0 1.07 6.34-11.59 8.27-14.26 3.69.56-2.91 6.45-5.54 9.1-5.9.68.3 1.15.82 1.72 1.23 4.12-1.16 8.79-2.34 12.79-.74-.43-.72-.58-1.72-.49-2.95 1.25-1.9 4.7-2.23 4.67-4.67 6.14-.65 10.47 1.95 15.74 1.23-1.6-1.78-3.17-.79-6.64-1.23-3.87-.49-8.46-1.85-12.05-.49 1.82 6.05-11.69 5.17-11.81 1.48-.07-2.16 2.87-3.02 5.16-3.44-.77-.64-1.7-.45-2.46 0-4.24-.86-8.94.42-12.79 1.48-17.88 4.88-53.98 23.76-38.37 46.99 1.26 1.88 3.04 3.85 4.43 5.41 6.88 7.76 14.68 11.02 25.82 14.02 11.12 3 22.84 5.19 35.41 6.4 1-3.01 2.62-5.42 5.17-6.89-.84-3.33.59-6.21 1.23-8.86-4.02-.4-15.14 3.1-17.46-.98 6.73-3.28 11.23-11.55 19.68-10.58 2.81.32 5.67 2.63 9.1.49-5.2-4.88-8.84-3.99-9.83-9.6zM52.11 67.83C32.23 78.15 12.1 97.89 29.73 120.23c13.37 16.94 59.08 24.31 79.44 25.58-.46-3.67 1.23-6.48 1.23-8.86-1.61 1.01-4.58.67-6.39 1.48 1.58.48 4.1-.96 5.41 0-3.6 3.84-10.18 1.89-16.23 1.23-10.76-1.17-21.18-3.14-30.99-6.15-6.93-2.13-12.82-3.79-17.71-7.13-4.65-3.17-9.58-8.11-12.54-13.04-1.83-3.05-3.56-7.56-3.44-11.56.33-11.51 8.16-19.54 15.49-25.09 10.47-7.91 25.32-13.62 39.6-15.01-.73-1.42 1.39-3.3.98-3.44-12.23 1.37-23.19 4.79-32.46 9.6zM82.61 76.2c-2.64-.36-6.15 2.26-9.1 3.2-.86-3.06 4.02-2.32 5.17-4.18-2.91.78-5.5 1.87-7.13 3.94 3.18 2.25 10.56 1.62 11.07-2.95zm1.72-9.35c.99 2.17 9.03 2.89 8.85-.24-.77-.18-2.16-.62-1.23-1.72-2.77-.94-5.65.66-7.62 1.97zm.98-5.9c1.7 1.63 5.48 1.3 8.12.74.05-.95.01-1.81-.24-2.46-.59.21-6.72-3.33-7.87 1.72zm23.36 24.35c-5.48-3.74-15.16-4.74-21.15-.74 6.91-3.01 14.9.04 21.15.74zm-3.44 35.67c2.51-1.59 4.46-3.73 6.39-5.9-.04.02-12.25 2.04-12.79 1.48 3.33-1.26 7.45-1.73 9.84-3.94-7.16.04-12.39 4.99-16.97 9.1 4.65-.09 7.86-.86 13.53-.74zm-8.61-24.11c.82-2.48-2.08-2.87-3.2-4.18-2.73 2.26-.12 6.67 3.2 4.18zm-.49-33.21c-.53-3.48 5.48-4.71 7.38-1.97 4.76-1.24 8.7 2.53 12.79 3.2.81.67.81 2.15 2.21 2.21-.06-1.21.75-1.55.74-2.71-1.1.59-1.35-.64-2.21-.99-2.44-.98-5.82-.97-8.36-2.21-1.21-.59-1.93-1.66-3.2-1.97-2.54-.62-5.51.78-6.64-1.72.67-.64 2.21-.41 2.71-1.23-5.71-1.27-4.5 6.47-8.85 7.38.61.81 2.75.55 3.44 0zm-2.46 27.3c-.3-2.93 1.26-3.99 1.97-5.9h-1.23c.67 1.7-2.71 3.75-.74 5.9zm.74-18.7c1.52 1.27 4.71.94 6.39.24 0-1.48-.93-2.77-.49-3.94-2.46.74-5.12 1.28-5.9 3.69zm6.88-19.68c-3.44-.84-7.25 3.87-6.39 6.64 1.38-2.47 2.54-5.17 6.88-4.67.94.7.98 2.3 2.95 1.97-1.37-1.18-1.8-3.54-3.44-3.94zm3.94 20.42c0 .49.67.31.49.98-.34.49-1.87 1.07-1.23 1.72 2.83-.61 5.11-1.77 6.39-3.94-3.15-.2-5.8.58-8.61.49-.29 2.41-3.31 2.1-5.41 2.71 3.67 1.04 5.08-1.85 8.36-1.97zm-4.18 4.18c-1.59.46-3.82 1.58-3.44 3.2 1.37.01 2.48-2.02 3.44-3.2zm-1.23-13.53c-.13-1.66 1.01-1.41 1.72-1.72-.56-.18-1.26-.22-1.72-.49.09.88-2.54.1-2.46 2.21.93.11 1.75-.64 2.46 0zm1.72 13.28c.24-.74.99-.97 1.23-1.72-.81.09-1.23.57-1.72.98.41 0 .14.68.49.74zm2.46-6.64c2.21-.46 5.23-.09 7.87-.24-3.14-1.28-7.8-1.11-10.33.74.77.78 1.54-.3 2.46-.49zm9.35 62.48c-3.01.3-5.88 3.25-8.61 2.21 2.09-1.62 5.41-3.17 8.36-3.94.79-.2 2.18.47 2.46-.74-5.83.56-11.1 1.69-13.04 6.15 4.65-.19 8.66-1.02 10.82-3.69zm-5.16-55.6c-1.99-1.04-5.82.35-5.66 3.69 1.35-.04 2.03.59 2.95.98-1.76-4.82 3.13-1.14 2.71-4.67zm.74-12.3c-1.62-.01-3.21-1.56-4.43-.49 1.46.02 3.08 1.18 4.43.49zm10.82-1.23c.46-.85 1.43-1.2 1.72-2.21-2.13-2.71-10.95-3.46-15.49-3.44 4.38 2.61 10.24 2.52 13.77 5.66zM114.09 125.4c-2.11-.35-5.14.22-5.66-1.72 1.08-1.58 3.16-3.06 4.43-4.92 1.02-1.5 2.32-4.08 1.97-5.17-2.33 2.35-3.98 5.37-6.89 7.13.39 3.91-1.87 5.18-1.48 9.1 2.92.03 7.25-1.9 7.62-4.43zm-1.97-46c-1.88.08-4.42 1.21-5.16 3.2.86-1.76 4.85-1.71 5.16-3.2zm2.71-25.34c-.31-2.9-3.22-2.88-5.66-1.97v.74c1.91.77 3.76 1.29 5.66 1.23zm-.49 28.54c-.55-.64.2-1.65-.24-1.97-.75 1.71-4.24.68-4.67 2.71 1.25 1.52 3.52-.2 4.92-.74zm-3.2-8.12c-.39.17-1.72.68-1.72 1.97.99-.36 2.39-1.36 1.72-1.97zm1.97 1.23c-.87.77-1.99 1.29-2.71 2.21h2.21c-.35-1.06.94-2.66.49-2.21zm4.43 33.21c.65-1.15 1.8-1.81 2.7-2.71-1.81-.04-5.6-.17-6.64-1.48 3.23.19 6.09.36 8.85-.24-1.6-.41-4.05-1.93-5.58-1.2.14-.89 1.63-1.19 1.64-1.27-2.96.48-5.93.96-7.87 2.46 2.49 1.28 4.3 3.24 6.89 4.43zm.98 32.47c.11-1.99-1.07-2.7-1.23-4.43-2.62 1.48-2.89 5.31-5.41 6.89-.49-2.09 1.53-3.25 1.72-5.41-.78.21-.93-.21-1.23-.49-.92 2.52-1.34 4.35-1.23 8.12 3.7-.31 5.06-2.97 7.38-4.67zm-6.15-19.43c1.94-1.1 5.01-1.06 6.64-2.46-.97.3-2.61-.15-3.69-.49-1.01 1.29-4.25 2.68-3.44 4.18 1.14.29-.43-1.04.49-1.23zm1.97-49.45c-1.26-.48-3.29.84-2.7 2.21 1.82-1.05 3.17-2.57 5.66-2.95.06-.47-.28-.54-.24-.98-1.54-.06-1.83 1.12-2.71 1.72zm-.49-2.71c-.44.3-1.43.04-1.72.49.76-.01 1.74.72 1.72-.49zm2.21-.49c.16-.33.53-.46.98-.49-.49-2.13-2.93-3.62-4.92-3.44 2.01.57 3.76 2.3 3.94 3.94zm3.44 61.26c-3.43 1-5.99 4.18-6.64 7.13 3.19-1.92 4.55-4.43 6.64-7.13zm.24-6.15c1.06-.99 2.28-1.82 2.95-3.2-3.53.07-6.83.77-9.59 2.21 2.29.25 4.38.69 6.64.98zm-1.23-47.73c.51.07.06 1.09.74.98 1.56-1.06-.66-3.42-1.72-4.18-1.05 1.49-2.95 2.13-2.95 4.67 1.89 1 2.94-.78 3.93-1.48zm5.17 51.17c.15-.91.69-1.44.98-2.21-2.58 1.07-5.75.29-9.1.24-.01.73-.64.84-.74 1.48 2.92-.4 6.67-.95 8.85.49zm-6.39-13.53c-1.05.26-.95 1.67-1.72 2.21 1.19-.12 1.66-.96 1.72-2.21zm14.02 30.5c-.45-7.75 2.37-12.23 7.38-14.51-.67-1.79-1.66-3.26-2.21-5.17-.36-.96.73-2.9-.25-2.21-1.2 3.31-.76 8.27-2.71 10.82-3.03 3.28-6.84 5.79-10.57 8.36-.55-1.01-.81-2.3-1.23-3.44-1.23 2.96-3.18 5.19-5.41 7.13 5.72-.19 10.52-.47 15-.98zm-9.84-85.85c-1.24-1.71-2.42-3.49-4.92-3.94.11 1.7 3.32 3.72 4.92 3.94zm7.13 23.12c-3.44-1.29-6.47-3-11.56-2.21-.01.32-.32.34-.25.74 4.83-.56 8.85.98 11.8 1.48zm0 36.16c-2.41-1.04-8.19-2.15-11.07-.25 3.6-.46 7.92 2.42 11.07.25zm-7.62-48.71c-1.47-.15-2.81 1.12-2.46 1.97.78-.7 3.25-.45 2.46-1.97zm7.38 38.38c-1.27-.19-3.04-1.4-5.17-1.48-1.43 1.19-3.75 1.5-4.67 3.2 3.57.98 7.71.46 9.84-1.72zm-8.36 30.75c.66-2.12 1.1-4.47 1.47-6.89-2.64.51-3.52 4.95-1.47 6.89zm6.88-23.12c-.65-1.08-.79-3.11-.49-4.43-1.51.46-3.34.59-4.92.98.31.1.51.32.49.74-.86.54-1.96.82-2.95 1.23.18.75-.25.9-.25 1.48 3.13-.81 5.79-.14 8.12 0zm-5.41-40.59c.07-.33.12-1.1.49-1.72-.52-.73-2.1-1.53-2.71-.24 1 .3 1.21 2.46 2.21 1.97zm1.23 29.77c1.2.07 1.38.23 2.95.24-.76-1.95-3.56-3.16-5.9-2.71 1.55.14 3.58.95 2.95 2.46zm-1.23-36.9c.83-3.93 3.49-6.02 5.41-8.86-3.45 1.96-6.31 4.51-7.13 9.1.85.2.95-.37 1.72-.25zm1.48 60.76c-.76.48-2.31-.23-2.95.25.74.43 3.5.8 2.95-.25zm6.39-8.12c-1.8-.08-2.65.8-4.67.49-.28 1.61-1.97 1.8-2.46 3.2 2.15-.12 5.38-1.73 7.13-3.69zm.49-52.15c-2.63.56-6.94-.54-7.62 1.97 1.9-.5 5.61-.81 7.62-1.97zm.74 3.44c-.53-1.04 1.49-1.6 1.23-2.21-3.09.52-5.38 1.84-8.85 1.97.93 3.2 4.75-.76 7.62.25zm-6.64 66.91c2.63-1.22 6.25-3.59 8.11-6.39-.87-1.18-2.16-1.94-3.44-2.71-.93.96-1.96 2.52-2.46 4.18-.32 1.06.32 2.72-.98 3.2-1.83-.9-.03-4.14.25-5.9-2.1.79-1.84 5.18-1.48 7.63zm1.23-63.22c3.62-1.47 9.51-.66 12.79-2.46-4.13.1-9.23-.2-13.53 1.72.35.14.6.39.74.74zm0-8.86c2.2.49 4.41.15 4.18-2.46-1.1-.62-2.32-1.13-4.18-.98-.89 1.22-.5 2 0 3.44zm5.9 55.6c-2.83 1.1-4.33 3.54-5.41 6.39 2.68-1.26 3.88-3.99 5.41-6.39zm4.67-43.05c-1.64-1.15-5.34-1.54-7.87-.98 2.66.29 5.11.79 7.87.98zm-6.89 37.39c1.89-1.63 2.26-4.79 2.71-7.87-3.47.18-4.2 4.89-2.71 7.87zm4.18-32.47c-1.36-.36-2.87-1.88-4.18-1.48 1.27.45 3.02 1.72 4.18 1.48zm-2.95 22.39c1.72-.66 1.64-3.12 2.71-4.43 1.25 1.16-.85 3.68-.24 4.92 3.25-2.66 1.38-8.8-1.48-10.82-2.16 2.69-2.32 6.78-.98 10.33zm-.25 21.16c1.01 1.12 1.6 2.66 3.2 3.2.63-2.33.62-5.29.98-7.87-2.23.72-3.19 2.71-4.18 4.67zm11.07-51.91c-2.92-1.73-8.01.38-10.82.49 4.01.24 8.19 1.82 10.82-.49zm-9.59-8.61c2.52-3.06 6.52-4.63 8.61-8.12-2.28.5-4.15 1.42-5.66 2.71-.01 1.6-.69 3.21-2.46 3.69-.35-.06-.41-.41-.74-.49.11.63-.89 2.13.24 2.21zm8.85 46.25c-3.62 1.05-6.47 2.88-8.61 5.41 4.04.1 5.79-3.54 8.61-5.41zm-5.9-5.91c-.23.43-.46.86-1.23.74-.14.53-.59 2.02 0 2.46.04-1.28 1.55-2.38 1.23-3.2zm0-38.87c3.41-2.23 6.64-3.08 11.8-3.2-3.79-.84-10.04-.48-13.04 1.97.63.19 1.04.6 1.23 1.23zm4.67 63.72c-3.93 1.4-5.92 6.05-5.41 11.07 1.47-4.02 3.97-7.02 5.41-11.07zm-5.41 12.55c.49.27-.3 1.32 0 2.21 4.89-2.62 9.36-6.41 8.36-13.53-.37-.37-.37-1.1-1.23-.98-.34 4.24-2.68 5.56-7.13 12.3zm5.66-24.6c-1.12-.11-1.32-1.14-2.21-1.48-.98.41-1.95.83-2.46 1.72 1.19.33 3.83.54 4.67-.24zm10.82-13.78c-3.75 2.15-9.72 1.67-13.04 2.21 4.52.43 11.11.83 13.04-2.21zm-11.31-3.69c-1.11-.36-1.82.95-1.23 1.48.25-.65.97-.83 1.23-1.48zm6.39-24.11c-2.56-1.24-5.47-.33-7.62.74-.45 5.19 12.18 1.92 8.61 0-.48.37-7.36 2.29-6.88.49 1.4-.89 4.71-.92 5.9-1.23zm5.9 34.44c-3.6-.4-6.74-.24-9.84 0 .89 1.42-2.08 1.86-1.48 2.95 1.17-.68 7.18-1.63 7.87-.98-1.33 2.52-6.45 1.26-8.36 3.2 4.71 2.44 7.94-.92 11.8-5.17zm-10.09 13.78c1.3-1.89 3.37-3.02 5.41-4.18-1.3-.34-1.65-1.38-.98-2.46-1.81.9-3.66 1.75-5.9 2.21.16 1.8.47 3.47 1.47 4.43zm5.9-53.87c-1.65-.6-4.31-2.13-5.66-1.48.79.11 1.43.38 1.23 1.48-.41.64-1.69-.58-2.21.24.98 1.11 5.48 1.98 6.64-.24zm-1.72 68.14c-.81-.42-1.16-1.3-1.97-1.72.05 1.7-1.76 2.83-1.48 3.94 1.03-.86 2.72-1.05 3.44-2.21zm7.13-15.74c-2.89 2.19-7.26 2.9-9.84 5.41 7.21 1.11 10.25-4 12.79-8.37-5.55.76-10.48 2.15-13.04 5.9 3.37-1.11 6.67-3.94 10.08-2.95zm3.69 16.48c-1.43-3.82-4.47-7.34-8.61-7.63.65.99 1.75 1.53 1.72 3.2-2.86-.34-3.22-3.18-5.66-3.94-1.38 4.16 7.37 7.59 12.54 8.37zm-9.59-65.44c-.67.17.18-1.16-.49-.99.17.67-1.16-.18-.98.49.73-.21 1.21 1.05 1.48.49zm1.97 45.51c2.83-.62 6.44-1.74 9.84-.98-.16-2.21.81-3.29.98-5.17-.87-.34-12.2 3.54-10.82 6.15zm4.67 12.3c2.64-1.87 5.42-3.6 7.87-5.66-1.47-1.64-2.25-3.99-2.95-6.39-2.9 3.66-4.93 8.19-9.59 10.09 1.9.31 3.06 1.36 4.67 1.97zm3.94-26.82c-.3-1.98-3.02-5.72-.74-7.13.87 1.59 1.01 3.9 1.72 5.66 3.66-3.72.43-8.01-1.97-10.82-1.12 2.82-2.03 5.84-1.97 9.84 1.92-.12 1.78 1.83 2.95 2.46zm2.21 4.18c-.36-1.17-1.34-2.4-2.21-1.72 1.05.26.85 1.78 2.21 1.72zm1.72-1.23c.92-2.05.97-5.59-.25-7.38-.53 2.59-2.65 5.97.25 7.38zm-.25 13.78c1.36-1.19 1.58-3.5 2.46-5.17-1.02-.71-.74-2.71-1.72-3.44-1.04 2.25-1.67 5.78-.74 8.61zm5.66 6.15c-.78-2.99-1.46-6.08-2.21-9.1-1.27 1.19-1.57 3.35-2.95 4.43 1.36 1.92 2.99 3.57 5.16 4.67zm4.43.25c-1.74-6.34-1.83-10.28-6.89-15.5-.3.03-.58.07-.49.49 4.21 5.91 1.76 14.67 7.38 15.01zm-1.48-18.2c5.38-1.27 7.34-8.95 8.36-14.02-5.81 1.08-12.08 3-12.79 8.37 2.73-1.96 5.33-6.61 9.35-5.66-1.43 1.94-3.92 2.81-5.41 4.67 1.86.06 5-1.99 6.15-.25-2.91 1.08-6.93 1.91-9.1 2.95.92 1.3 4.35.08 4.92 1.72-1.53 1.09-5.25 0-7.13.74.01.34-.12.54-.24.74.72 1.37 4.44 1.08 5.9.74zm-.74 5.9c1.61-.69 2.91-2.99 2.46-4.92-1.31 1-3.98.76-4.92 1.48.86 1.11 1.79 2.15 2.46 3.44zM46.7 101.29a49.28 49.28 0 0 0 5.41-7.63c-2.35.94-4.47 4.22-7.87 4.92-.46-1.92 1.69-2.27 2.7-2.95 6.78-4.57 13.75-11.01 22.38-14.02 2.44 2.85 5.6 7.39 6.15 12.55.41 3.84-.9 6.87-2.95 9.35 2.59.95 7.59-1.44 9.84 0-3.93 10.06-7.95 23.62-21.15 24.6-12.94.96-19.23-7.35-22.13-17.22-.54-1.84-1.38-4.38.24-5.66 2.08.77 3.93-.58 5.41 0-.98-1.9-2.29-3.45-2.71-5.9 2.32-1.74 3.28.77 4.67 1.97zm0 15.74c2.02-3.64 4.27-7.04 6.64-10.33-3.94.25-9.31-.02-12.79 1.23 1.92 3.16 2.96 7.21 6.15 9.1zm-.25-12.05c1.17-.17 1.62.21 1.97-.49-.69-.28-1.28-.28-1.97 0-.42-1.22-1.26-3.33-2.21-3.2a21.5 21.5 0 0 0 2.21 3.69zm6.64 20.67c9.59 2.96 19.75-2.92 21.89-9.59-4.89 6.69-20.35 9.01-28.28 3.69-.42-.01-.63.19-.74.49 2.02 2.01 4.33 4.55 7.13 5.41zm4.18-5.17c-1.04-3.96-1.28-8.72-2.7-12.3-2.91 1.76-4.72 6.76-6.89 10.09 2.52 1.25 6.02 2.83 9.59 2.21zm-9.1-17.96c1.68.78 2.86 2.06 5.16 2.21-.11-3.17-.4-6.16-1.23-8.61-1.43 2.01-3.03 3.86-3.93 6.39zm7.87 2.21c.01 0 8.91-3.69 10.58-5.66-3.04-2.78-8.04-3.61-12.79-4.67-.15.81.86 10.52 2.21 10.33zM59 120.97c4.3-.04 7.47-1.22 10.58-2.46-3.11-4.6-9.32-6.09-13.03-10.09.73 4.27 2.01 7.99 2.46 12.55zM69.58 87.27c-.11-1.37-.71-2.24-1.23-3.2-4.53 1.54-8.45 3.68-11.8 6.39 4.63-.78 8.83-1.99 13.03-3.2zm.24 4.92c.1-1.53.27-1.65.25-3.44-4.29.69-9.15 1.9-13.28 3.44 4.71.48 9.38-.68 13.04 0zm1.48 24.85c1.49-1.46 3.71-2.19 4.43-4.43-5.62-2.19-11.37-4.06-17.46-5.17-.01-.26-.32-.19-.25.25 3.85 3.7 9.13 5.95 13.28 9.35zm-2.95-19.43c.14-1.5 1.87-2.72.98-4.43-2.42.7-6.46-.02-9.59.98 2.94 1.07 5.48 2.56 8.61 3.44zm8.85 13.28c.7-1.68 2.26-3.81 1.72-5.9-5.96 1.28-11.1.41-17.21 1.48 5.21 1.88 10.37 2.88 15.49 4.43zm-7.13-6.89c3.88-2.88 4.41-11.58 1.47-15.99.78 9.39-3.87 13.35-9.59 16.24 3.09-.24 4.9-.37 8.12-.25zm36.4-10.82c-.11-1.18-.11-1.04 0-2.21-1.8-1.59-4.42-2-6.39-.24-.45 3.25 4.7 3.67 6.39 2.46zm10.82.24c2.44-.28 5.1-2.35 4.92-3.44-3.61 1.69-9.66 2.29-14.02 2.46 2.49.33 6.14 1.32 9.1.98z" fill="#67412E"></path></g></svg>
