<svg aria-hidden="true" focusable="false" viewBox="92.81 219.62 362.05 488.68" xmlns="http://www.w3.org/2000/svg"><g><path fill="var(--art-detail, #D14124)" d="m201.21 655.66-19.25-11.2 247.24-424.85 25.66 14.93z"></path><path d="M213.2 272.75c9.84-5.58 10.42-7.25 18.38-9.84 8-2.6 12.05-3.22 14.34 3.05.29.75.6 1.51.92 2.26 1.15 2.77 4.45 3.9 7.09 2.48 3.71-2 6.56-4.06 10.35-7.39 5.32-4.69 12.1-1.32 13.41 2.39.92 2.94.58 12.39.28 12.36l5.06-3.18c2.95-1.91 6.65-1.69 9.21.56l10.48 11.69 7.24-1.11s13.27-3.31 16.49-.1c3.21 3.2 3.88 7.64 7.51 11.96 8.37 3.71-.95 8.23 12.7 13.33 4.38 1.53 10.22-.75 10.22-.75s15.63-10.07 21.16 7.65c12.28 1.71 1.7 12.68 15.43 14.44 3.49 2.33 3.67 5.75 11.77 9.89 8.16 3.48 13.47-2.3 16.98 1.94 4.69 4.89 6.45 16.25 6.45 16.25z" fill="var(--art-fill, #F0EAD6)"></path><path d="M213.2 272.75s-4.92 13.35-8.68 24.2c-3.72 10.73-4.84 17.24-8.13 26.73-3.27 9.4-4.69 12.68-8.41 25.83-3.68 12.98-12.26 35.65-13.45 39.09-5.66 16.28-8.03 30.85-8.03 30.85s14.83 6.45 21.78 9.19c6.95 2.74 24.71 10.95 33.25 14.31s20.7 6.94 26.04 9.05 18.8 5.59 27.99 10.42c9.17 4.83 35.4 16.37 35.4 16.37s21.52 9.69 26.37 12.81c4.85 3.12 19.59 6.38 19.59 6.38 2.38-3.47 6.47-12.3 19.61-34.51 6.67-11.27 11.08-21.05 12.92-23.55 1.85-2.51 10.71-20.04 12.3-23.39 1.6-3.36 6.59-11.35 14.71-27.13 5.53-11.58 12.23-28.8 12.23-28.8z" fill="var(--art-fill, #F0EAD6)"></path><path d="m168.79 408.22 25.26 12.96 33.02 4.92a86.8 86.8 0 0 1 33.61 12.48c14.04 8.88 33.09 20.69 35.96 21.28 4.62.95 32.2 11.79 32.2 11.79l19.76 13.03 14.24 2.78s-15.2 30.15-22.56 43.09c-7.25 12.75-10.02 23.81-14.17 32.59-4.11 8.69-11.29 20.71-12.32 24.18-1.03 3.46-11.19 19.87-11.19 19.87s-23.13-16.49-34.89-16.57c-11.71-.07-33.14-10.02-37.64-11.79s-39.38-27.66-42.91-29.05-22.37-3.47-26.38-3.52c-4-.06-33.89-13.68-33.89-13.68s4.39-12.56 7.85-23.96c3.05-10.02 4.94-18.18 9.59-28.73 5.19-11.77 13.71-39.5 13.71-39.5z" fill="var(--art-detail, #D14124)"></path><path d="m129.09 525.64 23.09 11.85s34.28 7.97 35.8 8.57c1.52.6 42.27 25.96 46.56 26.94 2.85.65 17.77 2.49 27.47 3.65a33.94 33.94 0 0 1 15.49 5.94l15.84 11.15 13.78 5.78s-8.17 15.14-14.7 24.96c-6.35 9.55-10.88 21.49-14.42 27.95-3.47 6.34-12.55 18.49-13.37 20.98-.82 2.48-9.34 12.51-9.34 12.51s-17.07-11.68-27.23-12.29c-10.1-.6-29.03-8.87-33.01-10.38-3.98-1.51-35.74-22.35-38.89-23.55-3.16-1.2-19.68-3.62-23.16-3.84-3.47-.22-28.88-9.6-28.88-9.6s1.07-8.92 3.07-17.55c1.78-7.66 6.08-27.19 9.32-35.5 3.65-9.37 6.32-29.23 6.32-29.23z" fill="var(--art-detail, #D14124)"></path><path fill="var(--art-fill, #F0EAD6)" d="m248.83 708.3-34.08-9.19-60.62-28.32-33.46-10.91-27.86-11.79 13.88-29.72 26.74 7.3 91.69 41.59 34.39 11.2z"></path></g></svg>
